<mxfile host="Electron" modified="2023-04-04T13:14:08.304Z" agent="Mozilla/5.0 (Macintosh; Intel Mac OS X 10_15_7) AppleWebKit/537.36 (KHTML, like Gecko) draw.io/21.1.2 Chrome/106.0.5249.199 Electron/21.4.3 Safari/537.36" etag="Z0EZVzq_5_mTCiXVQ5nm" version="21.1.2" type="device">
  <diagram name="Page-1" id="upLESLYPz2ELQXHqG5Z5">
    <mxGraphModel dx="1090" dy="732" grid="1" gridSize="10" guides="1" tooltips="1" connect="1" arrows="1" fold="1" page="1" pageScale="1" pageWidth="850" pageHeight="1100" math="0" shadow="0">
      <root>
        <mxCell id="0" />
        <mxCell id="1" parent="0" />
        <mxCell id="elhIvt5DydXUez78cts0-1" value="" style="rounded=0;whiteSpace=wrap;html=1;shadow=0;fillColor=#f8cecc;strokeColor=#b85450;" parent="1" vertex="1">
          <mxGeometry x="150" y="11.5" width="390" height="228.5" as="geometry" />
        </mxCell>
        <mxCell id="elhIvt5DydXUez78cts0-2" value="&lt;font face=&quot;Verdana&quot; style=&quot;font-size: 13px&quot;&gt;proxy contracts&lt;br&gt;self-funded dAPIs&lt;br&gt;&lt;/font&gt;" style="text;html=1;strokeColor=none;fillColor=none;align=center;verticalAlign=middle;whiteSpace=wrap;rounded=0;shadow=1;fontSize=14;" parent="1" vertex="1">
          <mxGeometry x="153" y="29.909999999999997" width="110" height="30" as="geometry" />
        </mxCell>
        <mxCell id="elhIvt5DydXUez78cts0-3" value="" style="shape=note;whiteSpace=wrap;html=1;backgroundOutline=1;darkOpacity=0.05;size=8;" parent="1" vertex="1">
          <mxGeometry x="194" y="87" width="26" height="30" as="geometry" />
        </mxCell>
        <mxCell id="elhIvt5DydXUez78cts0-4" value="" style="shape=note;whiteSpace=wrap;html=1;backgroundOutline=1;darkOpacity=0.05;size=8;" parent="1" vertex="1">
          <mxGeometry x="194" y="135" width="26" height="30" as="geometry" />
        </mxCell>
        <mxCell id="elhIvt5DydXUez78cts0-5" value="" style="shape=note;whiteSpace=wrap;html=1;backgroundOutline=1;darkOpacity=0.05;size=8;" parent="1" vertex="1">
          <mxGeometry x="194" y="182" width="26" height="30" as="geometry" />
        </mxCell>
        <mxCell id="elhIvt5DydXUez78cts0-6" value="&lt;font style=&quot;font-size: 10px;&quot;&gt;AAVE/USD&lt;/font&gt;" style="text;html=1;strokeColor=none;fillColor=none;align=center;verticalAlign=middle;whiteSpace=wrap;rounded=0;fontSize=7;" parent="1" vertex="1">
          <mxGeometry x="177" y="110.19" width="60" height="30" as="geometry" />
        </mxCell>
        <mxCell id="elhIvt5DydXUez78cts0-7" value="&lt;font style=&quot;font-size: 10px;&quot;&gt;ZIL/USD&lt;/font&gt;" style="text;html=1;strokeColor=none;fillColor=none;align=center;verticalAlign=middle;whiteSpace=wrap;rounded=0;fontSize=7;" parent="1" vertex="1">
          <mxGeometry x="177" y="158" width="60" height="30" as="geometry" />
        </mxCell>
        <mxCell id="elhIvt5DydXUez78cts0-8" value="&lt;font style=&quot;font-size: 10px;&quot;&gt;BIT/USD&lt;/font&gt;" style="text;html=1;strokeColor=none;fillColor=none;align=center;verticalAlign=middle;whiteSpace=wrap;rounded=0;fontSize=7;" parent="1" vertex="1">
          <mxGeometry x="177" y="205" width="60" height="30" as="geometry" />
        </mxCell>
        <mxCell id="elhIvt5DydXUez78cts0-9" value="" style="rounded=0;whiteSpace=wrap;html=1;shadow=0;fillColor=#f8cecc;strokeColor=#b85450;" parent="1" vertex="1">
          <mxGeometry x="29" y="11.5" width="121" height="228.5" as="geometry" />
        </mxCell>
        <mxCell id="elhIvt5DydXUez78cts0-10" value="&lt;font face=&quot;Verdana&quot; style=&quot;font-size: 13px&quot;&gt;dApps&lt;br&gt;mulitple owners&lt;br&gt;&lt;/font&gt;" style="text;html=1;strokeColor=none;fillColor=none;align=center;verticalAlign=middle;whiteSpace=wrap;rounded=0;shadow=1;fontSize=14;" parent="1" vertex="1">
          <mxGeometry x="33" y="22.91" width="109.5" height="30" as="geometry" />
        </mxCell>
        <mxCell id="elhIvt5DydXUez78cts0-11" value="" style="shape=note;whiteSpace=wrap;html=1;backgroundOutline=1;darkOpacity=0.05;fontSize=10;size=15;" parent="1" vertex="1">
          <mxGeometry x="69.5" y="96" width="40" height="50" as="geometry" />
        </mxCell>
        <mxCell id="elhIvt5DydXUez78cts0-12" value="" style="shape=note;whiteSpace=wrap;html=1;backgroundOutline=1;darkOpacity=0.05;fontSize=10;size=15;" parent="1" vertex="1">
          <mxGeometry x="69.5" y="162" width="40" height="50" as="geometry" />
        </mxCell>
        <mxCell id="elhIvt5DydXUez78cts0-13" value="" style="endArrow=none;startArrow=classic;html=1;rounded=0;fontSize=11;endFill=0;" parent="1" edge="1">
          <mxGeometry width="50" height="50" relative="1" as="geometry">
            <mxPoint x="169" y="154.5" as="sourcePoint" />
            <mxPoint x="118" y="154.5" as="targetPoint" />
          </mxGeometry>
        </mxCell>
        <mxCell id="5fQOdbjtSibrSn1X4OTu-2" value="&lt;div style=&quot;font-family: Menlo, Monaco, &amp;quot;Courier New&amp;quot;, monospace; line-height: 18px;&quot;&gt;&lt;font color=&quot;#999999&quot;&gt;0x4a40Ed2Dbd51e655eD64371737C81883B0524eB2&lt;/font&gt;&lt;/div&gt;" style="text;html=1;strokeColor=none;fillColor=none;align=center;verticalAlign=middle;whiteSpace=wrap;rounded=0;" parent="1" vertex="1">
          <mxGeometry x="220" y="137.19" width="320" height="30" as="geometry" />
        </mxCell>
      </root>
    </mxGraphModel>
  </diagram>
</mxfile>
